# xmcd
#
# Track frame offsets: 
#        150
#        4565
#        40975
#        66325
#        109825
#        143950
#        163847
#
# Disc length: 2702 seconds
#
# Revision: 5
# Processed by: cddbd v1.5.2PL0 Copyright (c) Steve Scherf et al.
# Submitted via: ExactAudioCopy v1.1
#
DISCID=5d0a8c07
DTITLE=Albert King - Wednesday Night In San Francisco
DYEAR=1990
DGENRE=Blues
TTITLE0=Watermelon Man (live) (stereo)
TTITLE1=Why You So Mean To Me (live) (stereo)
TTITLE2=I Get Evil (live) (stereo)
TTITLE3=Got To Be Some Changes Made (live) (stereo)
TTITLE4=Personal Manager (live) (stereo)
TTITLE5=Born Under A Bad Sign (live) (stereo)
TTITLE6=Don't Throw Your Love On Me So Strong (live) (stereo)
EXTD=Recorded Live in San Francisco - June 26, 1968\n© 1990\nLabel: Fan
EXTD=tasy Inc. - Stax Records\nSCD-8556-2
EXTT0=
EXTT1=
EXTT2=
EXTT3=
EXTT4=
EXTT5=
EXTT6=
PLAYORDER=
